<?xml version="1.0" encoding="utf-8"?>
<!-- Generator: Adobe Illustrator 16.0.0, SVG Export Plug-In . SVG Version: 6.00 Build 0)  -->
<!DOCTYPE svg PUBLIC "-//W3C//DTD SVG 1.1//EN" "http://www.w3.org/Graphics/SVG/1.1/DTD/svg11.dtd">
<svg version="1.1" id="Layer_1" xmlns="http://www.w3.org/2000/svg" xmlns:xlink="http://www.w3.org/1999/xlink" x="0px" y="0px"
	 width="177px" height="157.912px" viewBox="0 0 177 157.912" enable-background="new 0 0 177 157.912" xml:space="preserve">
<g>
	
		<rect x="9.664" y="5.912" fill="#FFFFFF" stroke="#000000" stroke-width="3" stroke-miterlimit="10" width="160.858" height="35.855"/>
	<polygon fill="#FFFFFF" stroke="#000000" stroke-width="3" stroke-miterlimit="10" points="150.819,151.912 29.367,151.912 
		24.522,41.768 155.664,41.768 	"/>
</g>
<path fill="#17843B" stroke="#000000" stroke-width="3" stroke-miterlimit="10" d="M1009.548-45.297c0,0,3.406,46.711-17.594,51.209
	h27.5C1019.454,5.912,1028.141-15.506,1009.548-45.297z"/>
<g>
	<path fill="#7BBF55" stroke="#000000" stroke-width="3" stroke-miterlimit="10" d="M1009.548-45.297c0,0,3.406-43,70.906-32
		C1080.454-77.296,1064.141-7.797,1009.548-45.297z"/>
	<path fill="#7BBF55" stroke="#000000" stroke-width="3" stroke-miterlimit="10" d="M1009.548-45.297c0,0-3.407-43-70.907-32
		C938.641-77.296,954.954-7.797,1009.548-45.297z"/>
	<path fill="none" stroke="#000000" stroke-width="3" stroke-miterlimit="10" d="M1009.433-46.189c0,0-0.979-4.564-31.313-13.732"/>
	<path fill="none" stroke="#000000" stroke-width="3" stroke-miterlimit="10" d="M1010.62-45.297c0,0,14.334-16.125,46-18.958"/>
</g>
<ellipse fill="#954323" stroke="#000000" stroke-width="3" stroke-miterlimit="10" cx="1967" cy="-109.092" rx="67" ry="29.996"/>
</svg>
