<?xml version="1.0" encoding="utf-8"?>
<!-- Generator: Adobe Illustrator 16.0.0, SVG Export Plug-In . SVG Version: 6.00 Build 0)  -->
<!DOCTYPE svg PUBLIC "-//W3C//DTD SVG 1.1//EN" "http://www.w3.org/Graphics/SVG/1.1/DTD/svg11.dtd">
<svg version="1.1" id="Layer_1" xmlns="http://www.w3.org/2000/svg" xmlns:xlink="http://www.w3.org/1999/xlink" x="0px" y="0px"
	 width="144.5px" height="66.5px" viewBox="0 0 144.5 66.5" enable-background="new 0 0 144.5 66.5" xml:space="preserve">
<g>
	
		<rect x="-1884.336" y="149" fill="#FFFFFF" stroke="#000000" stroke-width="3" stroke-miterlimit="10" width="160.858" height="35.855"/>
	<polygon fill="#FFFFFF" stroke="#000000" stroke-width="3" stroke-miterlimit="10" points="-1743.181,295 -1864.633,295 
		-1869.478,184.855 -1738.336,184.855 	"/>
</g>
<path fill="#17843B" stroke="#000000" stroke-width="3" stroke-miterlimit="10" d="M-884.452,97.791c0,0,3.406,46.711-17.594,51.209
	h27.5C-874.546,149-865.859,127.582-884.452,97.791z"/>
<g>
	<path fill="#7BBF55" stroke="#000000" stroke-width="3" stroke-miterlimit="10" d="M-884.452,97.791c0,0,3.406-43,70.906-32
		C-813.546,65.792-829.859,135.291-884.452,97.791z"/>
	<path fill="#7BBF55" stroke="#000000" stroke-width="3" stroke-miterlimit="10" d="M-884.452,97.791c0,0-3.407-43-70.907-32
		C-955.359,65.792-939.046,135.291-884.452,97.791z"/>
	<path fill="none" stroke="#000000" stroke-width="3" stroke-miterlimit="10" d="M-884.567,96.898c0,0-0.979-4.564-31.313-13.732"/>
	<path fill="none" stroke="#000000" stroke-width="3" stroke-miterlimit="10" d="M-883.38,97.791c0,0,14.334-16.125,46-18.958"/>
</g>
<ellipse fill="#954323" stroke="#000000" stroke-width="3" stroke-miterlimit="10" cx="73" cy="33.996" rx="67" ry="29.996"/>
</svg>
