<?xml version="1.0" encoding="utf-8"?>
<!-- Generator: Adobe Illustrator 16.0.0, SVG Export Plug-In . SVG Version: 6.00 Build 0)  -->
<!DOCTYPE svg PUBLIC "-//W3C//DTD SVG 1.1//EN" "http://www.w3.org/Graphics/SVG/1.1/DTD/svg11.dtd">
<svg version="1.1" id="Layer_1" xmlns="http://www.w3.org/2000/svg" xmlns:xlink="http://www.w3.org/1999/xlink" x="0px" y="0px"
	 width="158px" height="95.001px" viewBox="0 0 158 95.001" enable-background="new 0 0 158 95.001" xml:space="preserve">
<g>
	
		<rect x="-921.336" y="95" fill="#FFFFFF" stroke="#000000" stroke-width="3" stroke-miterlimit="10" width="160.858" height="35.855"/>
	<polygon fill="#FFFFFF" stroke="#000000" stroke-width="3" stroke-miterlimit="10" points="-780.181,241 -901.633,241 
		-906.478,130.855 -775.336,130.855 	"/>
</g>
<path fill="#17843B" stroke="#000000" stroke-width="3" stroke-miterlimit="10" d="M78.548,43.791c0,0,3.406,46.711-17.594,51.209
	h27.5C88.454,95,97.141,73.582,78.548,43.791z"/>
<g>
	<path fill="#7BBF55" stroke="#000000" stroke-width="3" stroke-miterlimit="10" d="M78.548,43.791c0,0,3.406-43,70.906-32
		C149.454,11.792,133.141,81.291,78.548,43.791z"/>
	<path fill="#7BBF55" stroke="#000000" stroke-width="3" stroke-miterlimit="10" d="M78.548,43.791c0,0-3.407-43-70.907-32
		C7.641,11.792,23.954,81.291,78.548,43.791z"/>
	<path fill="none" stroke="#000000" stroke-width="3" stroke-miterlimit="10" d="M78.433,42.898c0,0-0.979-4.564-31.313-13.732"/>
	<path fill="none" stroke="#000000" stroke-width="3" stroke-miterlimit="10" d="M79.62,43.791c0,0,14.334-16.125,46-18.958"/>
</g>
<ellipse fill="#954323" stroke="#000000" stroke-width="3" stroke-miterlimit="10" cx="1036" cy="-20.004" rx="67" ry="29.996"/>
</svg>
